<svg xmlns="http://www.w3.org/2000/svg" xmlns:xlink="http://www.w3.org/1999/xlink" viewBox="39 14.117000579833984 408 152" height="50"><path d="M 44.000,109.117 C 45.957,106.088 46.000,106.117 48.000,103.117" stroke-width="5.291" stroke="black" fill="none" stroke-linecap="round"></path><path d="M 48.000,103.117 C 51.712,98.254 51.457,98.088 55.000,93.117" stroke-width="3.697" stroke="black" fill="none" stroke-linecap="round"></path><path d="M 55.000,93.117 C 59.876,85.815 59.712,85.754 64.000,78.117" stroke-width="2.997" stroke="black" fill="none" stroke-linecap="round"></path><path d="M 64.000,78.117 C 67.117,71.668 67.376,71.815 70.000,65.117" stroke-width="3.036" stroke="black" fill="none" stroke-linecap="round"></path><path d="M 70.000,65.117 C 73.118,59.299 72.617,59.168 75.000,53.117" stroke-width="3.083" stroke="black" fill="none" stroke-linecap="round"></path><path d="M 75.000,53.117 C 76.171,47.642 76.618,47.799 77.000,42.117" stroke-width="3.294" stroke="black" fill="none" stroke-linecap="round"></path><path d="M 77.000,42.117 C 77.735,37.630 77.671,37.642 78.000,33.117" stroke-width="3.497" stroke="black" fill="none" stroke-linecap="round"></path><path d="M 78.000,33.117 C 78.558,29.026 78.235,29.130 78.000,25.117" stroke-width="3.720" stroke="black" fill="none" stroke-linecap="round"></path><path d="M 78.000,25.117 C 77.566,19.117 77.558,22.026 76.000,19.117" stroke-width="4.368" stroke="black" fill="none" stroke-linecap="round"></path><path d="M 76.000,19.117 C 72.518,21.647 74.066,19.117 71.000,25.117" stroke-width="4.816" stroke="black" fill="none" stroke-linecap="round"></path><path d="M 71.000,25.117 C 69.886,30.097 69.018,29.647 69.000,35.117" stroke-width="3.826" stroke="black" fill="none" stroke-linecap="round"></path><path d="M 69.000,35.117 C 68.352,38.600 68.386,38.597 68.000,42.117" stroke-width="3.927" stroke="black" fill="none" stroke-linecap="round"></path><path d="M 68.000,42.117 C 67.590,48.625 67.352,48.600 67.000,55.117" stroke-width="3.309" stroke="black" fill="none" stroke-linecap="round"></path><path d="M 67.000,55.117 C 66.000,59.624 66.590,59.625 66.000,64.117" stroke-width="3.554" stroke="black" fill="none" stroke-linecap="round"></path><path d="M 66.000,64.117 C 66.562,67.609 66.000,67.624 67.000,71.117" stroke-width="3.790" stroke="black" fill="none" stroke-linecap="round"></path><path d="M 67.000,71.117 C 67.471,75.620 67.562,75.609 68.000,80.117" stroke-width="3.705" stroke="black" fill="none" stroke-linecap="round"></path><path d="M 68.000,80.117 C 68.555,84.110 68.471,84.120 69.000,88.117" stroke-width="3.730" stroke="black" fill="none" stroke-linecap="round"></path><path d="M 69.000,88.117 C 69.705,93.106 69.555,93.110 70.000,98.117" stroke-width="3.645" stroke="black" fill="none" stroke-linecap="round"></path><path d="M 70.000,98.117 C 70.000,101.617 70.205,101.606 70.000,105.117" stroke-width="4.289" stroke="black" fill="none" stroke-linecap="round"></path><path d="M 70.000,105.117 C 70.000,113.117 70.000,113.117 70.000,121.117" stroke-width="3.136" stroke="black" fill="none" stroke-linecap="round"></path><path d="M 70.000,121.117 C 71.243,127.117 70.000,124.117 70.000,127.117" stroke-width="4.120" stroke="black" fill="none" stroke-linecap="round"></path><path d="M 70.000,127.117 C 65.757,124.631 68.243,127.117 64.000,121.117" stroke-width="4.762" stroke="black" fill="none" stroke-linecap="round"></path><path d="M 64.000,121.117 C 63.752,118.096 62.757,118.631 64.000,115.117" stroke-width="4.322" stroke="black" fill="none" stroke-linecap="round"></path><path d="M 64.000,115.117 C 64.264,112.062 64.252,112.096 65.000,109.117" stroke-width="4.239" stroke="black" fill="none" stroke-linecap="round"></path><path d="M 65.000,109.117 C 65.930,103.848 66.264,104.062 68.000,99.117" stroke-width="3.618" stroke="black" fill="none" stroke-linecap="round"></path><path d="M 68.000,99.117 C 69.881,96.030 69.430,95.848 72.000,93.117" stroke-width="3.844" stroke="black" fill="none" stroke-linecap="round"></path><path d="M 72.000,93.117 C 73.750,90.367 73.881,90.530 76.000,88.117" stroke-width="4.010" stroke="black" fill="none" stroke-linecap="round"></path><path d="M 76.000,88.117 C 78.260,85.715 78.250,85.867 81.000,84.117" stroke-width="4.015" stroke="black" fill="none" stroke-linecap="round"></path><path d="M 81.000,84.117 C 84.353,81.898 84.260,82.215 88.000,81.117" stroke-width="4.388" stroke="black" fill="none" stroke-linecap="round"></path><path d="M 88.000,81.117 C 92.062,79.761 91.353,80.398 95.000,81.117" stroke-width="4.764" stroke="black" fill="none" stroke-linecap="round"></path><path d="M 95.000,81.117 C 98.628,83.691 98.562,82.761 101.000,87.117" stroke-width="4.786" stroke="black" fill="none" stroke-linecap="round"></path><path d="M 101.000,87.117 C 103.161,90.481 103.128,90.191 104.000,94.117" stroke-width="4.651" stroke="black" fill="none" stroke-linecap="round"></path><path d="M 104.000,94.117 C 104.487,97.196 104.661,96.981 104.000,100.117" stroke-width="4.294" stroke="black" fill="none" stroke-linecap="round"></path><path d="M 104.000,100.117 C 103.213,103.205 103.487,103.196 102.000,106.117" stroke-width="4.107" stroke="black" fill="none" stroke-linecap="round"></path><path d="M 102.000,106.117 C 100.848,109.344 100.713,109.205 99.000,112.117" stroke-width="4.055" stroke="black" fill="none" stroke-linecap="round"></path><path d="M 99.000,112.117 C 96.850,115.486 96.848,115.344 94.000,118.117" stroke-width="3.858" stroke="black" fill="none" stroke-linecap="round"></path><path d="M 94.000,118.117 C 89.250,123.792 90.350,121.486 86.000,124.117" stroke-width="4.188" stroke="black" fill="none" stroke-linecap="round"></path><path d="M 86.000,124.117 C 83.145,121.041 84.250,124.292 84.000,119.117" stroke-width="4.898" stroke="black" fill="none" stroke-linecap="round"></path><path d="M 84.000,119.117 C 86.911,116.970 85.145,116.541 90.000,115.117" stroke-width="4.136" stroke="black" fill="none" stroke-linecap="round"></path><path d="M 90.000,115.117 C 94.500,112.617 94.411,112.470 99.000,110.117" stroke-width="3.729" stroke="black" fill="none" stroke-linecap="round"></path><path d="M 99.000,110.117 C 103.513,107.640 103.500,107.617 108.000,105.117" stroke-width="3.509" stroke="black" fill="none" stroke-linecap="round"></path><path d="M 108.000,105.117 C 111.544,103.190 111.513,103.140 115.000,101.117" stroke-width="3.718" stroke="black" fill="none" stroke-linecap="round"></path><path d="M 115.000,101.117 C 118.983,98.589 119.044,98.690 123.000,96.117" stroke-width="3.591" stroke="black" fill="none" stroke-linecap="round"></path><path d="M 123.000,96.117 C 125.988,95.129 125.483,94.589 128.000,93.117" stroke-width="3.989" stroke="black" fill="none" stroke-linecap="round"></path><path d="M 128.000,93.117 C 132.933,88.983 130.488,90.629 132.000,87.117" stroke-width="4.424" stroke="black" fill="none" stroke-linecap="round"></path><path d="M 132.000,87.117 C 127.595,84.346 130.933,84.983 124.000,85.117" stroke-width="4.818" stroke="black" fill="none" stroke-linecap="round"></path><path d="M 124.000,85.117 C 120.617,87.261 120.595,85.846 118.000,90.117" stroke-width="4.041" stroke="black" fill="none" stroke-linecap="round"></path><path d="M 118.000,90.117 C 115.323,93.503 115.117,93.261 113.000,97.117" stroke-width="3.822" stroke="black" fill="none" stroke-linecap="round"></path><path d="M 113.000,97.117 C 110.531,100.441 110.823,100.503 109.000,104.117" stroke-width="3.764" stroke="black" fill="none" stroke-linecap="round"></path><path d="M 109.000,104.117 C 107.419,106.792 108.031,106.441 108.000,109.117" stroke-width="4.141" stroke="black" fill="none" stroke-linecap="round"></path><path d="M 108.000,109.117 C 109.056,114.243 108.919,112.792 112.000,116.117" stroke-width="4.417" stroke="black" fill="none" stroke-linecap="round"></path><path d="M 112.000,116.117 C 115.707,116.995 114.556,117.743 119.000,116.117" stroke-width="3.993" stroke="black" fill="none" stroke-linecap="round"></path><path d="M 119.000,116.117 C 123.223,114.477 123.207,114.995 127.000,112.117" stroke-width="3.825" stroke="black" fill="none" stroke-linecap="round"></path><path d="M 127.000,112.117 C 131.500,109.617 131.223,109.477 135.000,106.117" stroke-width="3.563" stroke="black" fill="none" stroke-linecap="round"></path><path d="M 135.000,106.117 C 138.361,102.340 138.500,102.617 141.000,98.117" stroke-width="3.548" stroke="black" fill="none" stroke-linecap="round"></path><path d="M 141.000,98.117 C 143.243,94.217 143.361,94.340 145.000,90.117" stroke-width="3.590" stroke="black" fill="none" stroke-linecap="round"></path><path d="M 145.000,90.117 C 146.510,82.973 146.243,87.217 147.000,84.117" stroke-width="4.326" stroke="black" fill="none" stroke-linecap="round"></path><path d="M 147.000,84.117 C 147.658,90.611 148.010,86.473 148.000,97.117" stroke-width="4.579" stroke="black" fill="none" stroke-linecap="round"></path><path d="M 148.000,97.117 C 147.770,100.133 148.158,100.111 148.000,103.117" stroke-width="4.276" stroke="black" fill="none" stroke-linecap="round"></path><path d="M 148.000,103.117 C 147.737,110.838 148.270,106.633 149.000,110.117" stroke-width="4.519" stroke="black" fill="none" stroke-linecap="round"></path><path d="M 149.000,110.117 C 152.886,104.930 151.237,108.838 155.000,99.117" stroke-width="4.504" stroke="black" fill="none" stroke-linecap="round"></path><path d="M 155.000,99.117 C 155.904,93.597 156.886,93.930 157.000,88.117" stroke-width="3.664" stroke="black" fill="none" stroke-linecap="round"></path><path d="M 157.000,88.117 C 158.130,83.643 157.904,83.597 159.000,79.117" stroke-width="3.652" stroke="black" fill="none" stroke-linecap="round"></path><path d="M 159.000,79.117 C 160.252,70.564 160.630,70.643 162.000,62.117" stroke-width="3.003" stroke="black" fill="none" stroke-linecap="round"></path><path d="M 162.000,62.117 C 163.500,56.117 163.252,56.064 165.000,50.117" stroke-width="3.176" stroke="black" fill="none" stroke-linecap="round"></path><path d="M 165.000,50.117 C 166.073,46.133 166.000,46.117 167.000,42.117" stroke-width="3.533" stroke="black" fill="none" stroke-linecap="round"></path><path d="M 167.000,42.117 C 167.500,37.117 167.573,39.633 168.000,37.117" stroke-width="4.054" stroke="black" fill="none" stroke-linecap="round"></path><path d="M 168.000,37.117 C 168.859,39.581 168.500,37.117 169.000,42.117" stroke-width="4.806" stroke="black" fill="none" stroke-linecap="round"></path><path d="M 169.000,42.117 C 169.000,48.617 169.359,48.581 169.000,55.117" stroke-width="3.546" stroke="black" fill="none" stroke-linecap="round"></path><path d="M 169.000,55.117 C 169.220,62.622 169.000,62.617 169.000,70.117" stroke-width="3.136" stroke="black" fill="none" stroke-linecap="round"></path><path d="M 169.000,70.117 C 168.339,79.612 168.720,79.622 168.000,89.117" stroke-width="2.717" stroke="black" fill="none" stroke-linecap="round"></path><path d="M 168.000,89.117 C 168.000,93.617 167.839,93.612 168.000,98.117" stroke-width="3.325" stroke="black" fill="none" stroke-linecap="round"></path><path d="M 168.000,98.117 C 168.000,103.117 168.000,103.117 168.000,108.117" stroke-width="3.419" stroke="black" fill="none" stroke-linecap="round"></path><path d="M 168.000,108.117 C 167.239,113.863 168.000,111.117 168.000,114.117" stroke-width="4.271" stroke="black" fill="none" stroke-linecap="round"></path><path d="M 168.000,114.117 C 169.858,111.781 168.739,114.363 171.000,109.117" stroke-width="4.615" stroke="black" fill="none" stroke-linecap="round"></path><path d="M 171.000,109.117 C 172.142,104.452 172.858,104.781 174.000,100.117" stroke-width="3.863" stroke="black" fill="none" stroke-linecap="round"></path><path d="M 174.000,100.117 C 175.619,97.682 175.142,97.452 177.000,95.117" stroke-width="4.085" stroke="black" fill="none" stroke-linecap="round"></path><path d="M 177.000,95.117 C 179.000,91.117 179.119,91.182 181.000,87.117" stroke-width="3.739" stroke="black" fill="none" stroke-linecap="round"></path><path d="M 181.000,87.117 C 182.313,84.008 182.500,84.117 184.000,81.117" stroke-width="3.940" stroke="black" fill="none" stroke-linecap="round"></path><path d="M 184.000,81.117 C 186.111,78.186 185.813,78.008 188.000,75.117" stroke-width="3.947" stroke="black" fill="none" stroke-linecap="round"></path><path d="M 188.000,75.117 C 192.000,68.998 190.111,71.686 192.000,68.117" stroke-width="4.332" stroke="black" fill="none" stroke-linecap="round"></path><path d="M 192.000,68.117 C 190.000,70.117 192.000,67.498 188.000,72.117" stroke-width="4.806" stroke="black" fill="none" stroke-linecap="round"></path><path d="M 188.000,72.117 C 184.182,75.356 184.500,75.617 181.000,79.117" stroke-width="3.917" stroke="black" fill="none" stroke-linecap="round"></path><path d="M 181.000,79.117 C 178.464,81.895 178.682,81.856 177.000,85.117" stroke-width="3.940" stroke="black" fill="none" stroke-linecap="round"></path><path d="M 177.000,85.117 C 175.626,87.687 175.964,87.395 176.000,90.117" stroke-width="4.162" stroke="black" fill="none" stroke-linecap="round"></path><path d="M 176.000,90.117 C 176.546,95.050 176.626,94.187 179.000,98.117" stroke-width="4.390" stroke="black" fill="none" stroke-linecap="round"></path><path d="M 179.000,98.117 C 181.432,99.327 180.546,100.050 184.000,100.117" stroke-width="4.261" stroke="black" fill="none" stroke-linecap="round"></path><path d="M 184.000,100.117 C 187.949,101.402 187.932,101.327 192.000,102.117" stroke-width="3.918" stroke="black" fill="none" stroke-linecap="round"></path><path d="M 192.000,102.117 C 196.532,102.411 196.449,102.902 201.000,103.117" stroke-width="3.684" stroke="black" fill="none" stroke-linecap="round"></path><path d="M 201.000,103.117 C 206.000,104.117 206.032,103.911 211.000,105.117" stroke-width="3.565" stroke="black" fill="none" stroke-linecap="round"></path><path d="M 211.000,105.117 C 213.486,105.698 213.500,105.617 216.000,106.117" stroke-width="4.028" stroke="black" fill="none" stroke-linecap="round"></path><path d="M 216.000,106.117 C 219.944,107.950 219.486,106.698 223.000,107.117" stroke-width="4.448" stroke="black" fill="none" stroke-linecap="round"></path><path d="M 223.000,107.117 C 225.258,105.333 225.444,106.450 227.000,103.117" stroke-width="4.286" stroke="black" fill="none" stroke-linecap="round"></path><path d="M 227.000,103.117 C 230.826,98.311 230.758,98.333 234.000,93.117" stroke-width="4.159" stroke="black" fill="none" stroke-linecap="round"></path><path d="M 234.000,93.117 C 236.302,89.242 236.326,89.311 238.000,85.117" stroke-width="3.816" stroke="black" fill="none" stroke-linecap="round"></path><path d="M 238.000,85.117 C 240.350,80.670 239.802,80.742 241.000,76.117" stroke-width="4.187" stroke="black" fill="none" stroke-linecap="round"></path><path d="M 241.000,76.117 C 241.330,73.112 241.350,73.670 240.000,71.117" stroke-width="4.284" stroke="black" fill="none" stroke-linecap="round"></path><path d="M 240.000,71.117 C 237.686,67.361 238.330,68.612 235.000,67.117" stroke-width="4.574" stroke="black" fill="none" stroke-linecap="round"></path><path d="M 235.000,67.117 C 231.814,68.326 232.186,66.861 229.000,70.117" stroke-width="4.129" stroke="black" fill="none" stroke-linecap="round"></path><path d="M 229.000,70.117 C 226.116,71.765 226.314,71.826 224.000,74.117" stroke-width="4.099" stroke="black" fill="none" stroke-linecap="round"></path><path d="M 224.000,74.117 C 221.262,76.835 221.616,76.765 220.000,80.117" stroke-width="3.993" stroke="black" fill="none" stroke-linecap="round"></path><path d="M 220.000,80.117 C 219.000,83.631 218.762,83.335 219.000,87.117" stroke-width="3.979" stroke="black" fill="none" stroke-linecap="round"></path><path d="M 219.000,87.117 C 218.892,89.900 219.000,89.631 220.000,92.117" stroke-width="4.175" stroke="black" fill="none" stroke-linecap="round"></path><path d="M 220.000,92.117 C 221.556,95.216 221.392,94.900 224.000,97.117" stroke-width="4.112" stroke="black" fill="none" stroke-linecap="round"></path><path d="M 224.000,97.117 C 226.391,98.682 226.056,98.716 229.000,99.117" stroke-width="4.179" stroke="black" fill="none" stroke-linecap="round"></path><path d="M 229.000,99.117 C 232.727,99.935 232.391,99.682 236.000,99.117" stroke-width="4.041" stroke="black" fill="none" stroke-linecap="round"></path><path d="M 236.000,99.117 C 239.000,98.117 238.727,98.435 241.000,96.117" stroke-width="4.098" stroke="black" fill="none" stroke-linecap="round"></path><path d="M 241.000,96.117 C 242.605,93.674 243.000,94.117 244.000,91.117" stroke-width="4.202" stroke="black" fill="none" stroke-linecap="round"></path><path d="M 244.000,91.117 C 245.313,85.117 245.605,88.174 247.000,85.117" stroke-width="4.522" stroke="black" fill="none" stroke-linecap="round"></path><path d="M 247.000,85.117 C 249.187,88.008 248.813,85.117 251.000,91.117" stroke-width="4.964" stroke="black" fill="none" stroke-linecap="round"></path><path d="M 251.000,91.117 C 251.860,94.709 252.687,94.008 254.000,97.117" stroke-width="4.758" stroke="black" fill="none" stroke-linecap="round"></path><path d="M 254.000,97.117 C 256.980,100.925 255.860,99.209 259.000,100.117" stroke-width="4.943" stroke="black" fill="none" stroke-linecap="round"></path><path d="M 259.000,100.117 C 261.285,96.435 261.980,98.925 264.000,93.117" stroke-width="5.180" stroke="black" fill="none" stroke-linecap="round"></path><path d="M 264.000,93.117 C 266.110,88.697 265.785,90.935 268.000,89.117" stroke-width="5.083" stroke="black" fill="none" stroke-linecap="round"></path><path d="M 268.000,89.117 C 270.250,92.367 270.610,89.697 273.000,95.117" stroke-width="4.697" stroke="black" fill="none" stroke-linecap="round"></path><path d="M 273.000,95.117 C 275.589,99.067 275.750,97.867 279.000,100.117" stroke-width="4.610" stroke="black" fill="none" stroke-linecap="round"></path><path d="M 279.000,100.117 C 282.944,100.506 282.089,101.067 286.000,99.117" stroke-width="4.626" stroke="black" fill="none" stroke-linecap="round"></path><path d="M 286.000,99.117 C 288.313,94.367 288.444,98.006 290.000,95.117" stroke-width="4.286" stroke="black" fill="none" stroke-linecap="round"></path><path d="M 290.000,95.117 C 293.922,98.803 292.813,96.367 295.000,103.117" stroke-width="4.718" stroke="black" fill="none" stroke-linecap="round"></path><path d="M 295.000,103.117 C 294.700,107.151 295.922,106.803 294.000,111.117" stroke-width="4.048" stroke="black" fill="none" stroke-linecap="round"></path><path d="M 294.000,111.117 C 293.668,115.854 293.200,115.651 292.000,120.117" stroke-width="3.700" stroke="black" fill="none" stroke-linecap="round"></path><path d="M 292.000,120.117 C 288.819,127.297 289.168,127.354 285.000,134.117" stroke-width="3.187" stroke="black" fill="none" stroke-linecap="round"></path><path d="M 285.000,134.117 C 281.937,139.949 281.819,139.797 278.000,145.117" stroke-width="3.125" stroke="black" fill="none" stroke-linecap="round"></path><path d="M 278.000,145.117 C 274.102,151.035 273.937,150.449 269.000,155.117" stroke-width="3.136" stroke="black" fill="none" stroke-linecap="round"></path><path d="M 269.000,155.117 C 266.058,156.862 266.602,157.035 263.000,157.117" stroke-width="3.713" stroke="black" fill="none" stroke-linecap="round"></path><path d="M 263.000,157.117 C 259.692,157.359 260.058,157.362 257.000,156.117" stroke-width="4.004" stroke="black" fill="none" stroke-linecap="round"></path><path d="M 257.000,156.117 C 252.343,154.338 253.192,154.359 250.000,151.117" stroke-width="3.812" stroke="black" fill="none" stroke-linecap="round"></path><path d="M 250.000,151.117 C 248.801,148.098 248.343,148.838 249.000,145.117" stroke-width="4.038" stroke="black" fill="none" stroke-linecap="round"></path><path d="M 249.000,145.117 C 249.205,140.305 249.301,140.598 251.000,136.117" stroke-width="3.697" stroke="black" fill="none" stroke-linecap="round"></path><path d="M 251.000,136.117 C 253.682,129.451 253.705,129.805 258.000,124.117" stroke-width="3.254" stroke="black" fill="none" stroke-linecap="round"></path><path d="M 258.000,124.117 C 262.799,119.372 262.182,118.951 268.000,115.117" stroke-width="3.113" stroke="black" fill="none" stroke-linecap="round"></path><path d="M 268.000,115.117 C 273.945,110.541 273.799,110.372 280.000,106.117" stroke-width="3.025" stroke="black" fill="none" stroke-linecap="round"></path><path d="M 280.000,106.117 C 286.743,100.713 286.945,101.041 294.000,96.117" stroke-width="2.798" stroke="black" fill="none" stroke-linecap="round"></path><path d="M 294.000,96.117 C 302.192,91.922 301.743,91.213 310.000,87.117" stroke-width="2.732" stroke="black" fill="none" stroke-linecap="round"></path><path d="M 310.000,87.117 C 314.806,83.291 315.192,83.922 320.000,80.117" stroke-width="3.090" stroke="black" fill="none" stroke-linecap="round"></path><path d="M 320.000,80.117 C 324.263,78.519 323.806,77.791 328.000,76.117" stroke-width="3.484" stroke="black" fill="none" stroke-linecap="round"></path><path d="M 328.000,76.117 C 333.450,73.864 331.263,74.019 334.000,71.117" stroke-width="4.167" stroke="black" fill="none" stroke-linecap="round"></path><path d="M 334.000,71.117 C 332.667,67.228 334.450,68.864 330.000,66.117" stroke-width="4.853" stroke="black" fill="none" stroke-linecap="round"></path><path d="M 330.000,66.117 C 325.735,65.121 326.667,64.728 322.000,66.117" stroke-width="4.621" stroke="black" fill="none" stroke-linecap="round"></path><path d="M 322.000,66.117 C 318.344,67.887 318.235,67.121 315.000,70.117" stroke-width="4.026" stroke="black" fill="none" stroke-linecap="round"></path><path d="M 315.000,70.117 C 312.167,71.783 312.344,71.887 310.000,74.117" stroke-width="4.068" stroke="black" fill="none" stroke-linecap="round"></path><path d="M 310.000,74.117 C 305.533,78.818 305.667,78.783 302.000,84.117" stroke-width="3.425" stroke="black" fill="none" stroke-linecap="round"></path><path d="M 302.000,84.117 C 299.488,87.950 299.533,87.818 298.000,92.117" stroke-width="3.604" stroke="black" fill="none" stroke-linecap="round"></path><path d="M 298.000,92.117 C 296.735,95.199 296.988,94.950 297.000,98.117" stroke-width="3.921" stroke="black" fill="none" stroke-linecap="round"></path><path d="M 297.000,98.117 C 296.852,102.656 297.235,100.699 299.000,103.117" stroke-width="4.199" stroke="black" fill="none" stroke-linecap="round"></path><path d="M 299.000,103.117 C 305.519,103.248 303.852,104.156 311.000,101.117" stroke-width="4.112" stroke="black" fill="none" stroke-linecap="round"></path><path d="M 311.000,101.117 C 314.484,99.052 314.519,99.748 317.000,96.117" stroke-width="3.928" stroke="black" fill="none" stroke-linecap="round"></path><path d="M 317.000,96.117 C 319.859,91.514 320.484,92.052 323.000,87.117" stroke-width="3.509" stroke="black" fill="none" stroke-linecap="round"></path><path d="M 323.000,87.117 C 326.673,80.807 324.859,84.514 327.000,82.117" stroke-width="4.272" stroke="black" fill="none" stroke-linecap="round"></path><path d="M 327.000,82.117 C 326.026,88.621 327.673,84.807 325.000,95.117" stroke-width="4.397" stroke="black" fill="none" stroke-linecap="round"></path><path d="M 325.000,95.117 C 323.755,98.175 324.526,98.121 324.000,101.117" stroke-width="4.260" stroke="black" fill="none" stroke-linecap="round"></path><path d="M 324.000,101.117 C 323.937,107.434 324.255,104.175 326.000,107.117" stroke-width="4.572" stroke="black" fill="none" stroke-linecap="round"></path><path d="M 326.000,107.117 C 331.560,103.197 330.437,106.434 337.000,99.117" stroke-width="4.143" stroke="black" fill="none" stroke-linecap="round"></path><path d="M 337.000,99.117 C 341.278,95.265 341.560,95.697 346.000,92.117" stroke-width="3.502" stroke="black" fill="none" stroke-linecap="round"></path><path d="M 346.000,92.117 C 349.228,88.655 348.778,90.265 352.000,89.117" stroke-width="3.899" stroke="black" fill="none" stroke-linecap="round"></path><path d="M 352.000,89.117 C 355.882,91.092 355.228,89.655 358.000,94.117" stroke-width="4.332" stroke="black" fill="none" stroke-linecap="round"></path><path d="M 358.000,94.117 C 357.313,99.398 359.382,96.092 359.000,99.117" stroke-width="4.696" stroke="black" fill="none" stroke-linecap="round"></path><path d="M 359.000,99.117 C 364.319,95.273 363.313,98.398 370.000,92.117" stroke-width="5.104" stroke="black" fill="none" stroke-linecap="round"></path><path d="M 370.000,92.117 C 373.325,89.992 373.319,90.273 377.000,89.117" stroke-width="4.336" stroke="black" fill="none" stroke-linecap="round"></path><path d="M 377.000,89.117 C 384.000,87.450 383.825,87.492 391.000,87.117" stroke-width="3.294" stroke="black" fill="none" stroke-linecap="round"></path><path d="M 391.000,87.117 C 396.157,85.865 394.500,86.950 398.000,88.117" stroke-width="3.782" stroke="black" fill="none" stroke-linecap="round"></path><path d="M 398.000,88.117 C 401.363,93.515 400.657,91.365 400.000,98.117" stroke-width="4.128" stroke="black" fill="none" stroke-linecap="round"></path><path d="M 400.000,98.117 C 395.521,106.980 397.363,107.015 390.000,115.117" stroke-width="2.853" stroke="black" fill="none" stroke-linecap="round"></path><path d="M 390.000,115.117 C 385.590,120.692 386.021,120.980 381.000,126.117" stroke-width="2.997" stroke="black" fill="none" stroke-linecap="round"></path><path d="M 381.000,126.117 C 374.739,133.839 374.590,133.692 368.000,141.117" stroke-width="2.704" stroke="black" fill="none" stroke-linecap="round"></path><path d="M 368.000,141.117 C 362.000,147.117 362.239,147.339 356.000,153.117" stroke-width="2.781" stroke="black" fill="none" stroke-linecap="round"></path><path d="M 356.000,153.117 C 346.979,163.305 352.000,157.117 348.000,161.117" stroke-width="3.173" stroke="black" fill="none" stroke-linecap="round"></path><path d="M 348.000,161.117 C 353.965,148.215 350.479,155.805 363.000,138.117" stroke-width="3.463" stroke="black" fill="none" stroke-linecap="round"></path><path d="M 363.000,138.117 C 372.100,130.046 370.965,129.215 382.000,123.117" stroke-width="2.504" stroke="black" fill="none" stroke-linecap="round"></path><path d="M 382.000,123.117 C 392.301,116.269 392.100,116.046 403.000,110.117" stroke-width="2.353" stroke="black" fill="none" stroke-linecap="round"></path><path d="M 403.000,110.117 C 412.401,104.916 412.301,104.769 422.000,100.117" stroke-width="2.498" stroke="black" fill="none" stroke-linecap="round"></path><path d="M 422.000,100.117 C 428.602,97.315 428.401,96.916 435.000,94.117" stroke-width="2.810" stroke="black" fill="none" stroke-linecap="round"></path><path d="M 435.000,94.117 C 438.518,92.148 438.602,92.315 442.000,90.117" stroke-width="3.445" stroke="black" fill="none" stroke-linecap="round"></path></svg>